<svg xmlns="http://www.w3.org/2000/svg" width="48" height="48" viewBox="0 0 48 48" fill="none"><path d="M32.9001 28.8V17C32.9001 15.9 32.0001 15 30.9001 15H25.1001" stroke="#3A3A3A" stroke-width="2" stroke-linecap="round" stroke-linejoin="round"></path><path d="M28.1 12L24.5 15L28.1 18" stroke="#3A3A3A" stroke-width="2" stroke-linecap="round" stroke-linejoin="round"></path><path d="M15.1001 20.4V28.8" stroke="#3A3A3A" stroke-width="2" stroke-linecap="round" stroke-linejoin="round"></path><path d="M15.4 19.8C17.5539 19.8 19.3 18.0539 19.3 15.9C19.3 13.7461 17.5539 12 15.4 12C13.2461 12 11.5 13.7461 11.5 15.9C11.5 18.0539 13.2461 19.8 15.4 19.8Z" stroke="#3A3A3A" stroke-width="2" stroke-linecap="round" stroke-linejoin="round"></path><path d="M15.1 36C17.0882 36 18.7 34.3882 18.7 32.4C18.7 30.4118 17.0882 28.8 15.1 28.8C13.1118 28.8 11.5 30.4118 11.5 32.4C11.5 34.3882 13.1118 36 15.1 36Z" stroke="#3A3A3A" stroke-width="2" stroke-linecap="round" stroke-linejoin="round"></path><path d="M32.9008 35.9998C34.889 35.9998 36.5007 34.3881 36.5007 32.3998C36.5007 30.4116 34.889 28.7998 32.9008 28.7998C30.9125 28.7998 29.3008 30.4116 29.3008 32.3998C29.3008 34.3881 30.9125 35.9998 32.9008 35.9998Z" stroke="#3A3A3A" stroke-width="2" stroke-linecap="round" stroke-linejoin="round"></path><path d="M18 44H30C40 44 44 40 44 30V18C44 8 40 4 30 4H18C8 4 4 8 4 18V30C4 40 8 44 18 44Z" stroke="#3A3A3A" stroke-width="2" stroke-linecap="round" stroke-linejoin="round"></path></svg>