<?xml version="1.0" encoding="UTF-8"?>
<svg width="944" height="944" viewBox="0 0 944 944" fill="none" xmlns="http://www.w3.org/2000/svg">
<circle cx="472" cy="472" r="472" fill="url(#paint0_radial)" fill-opacity="0.4"/>
<path d="M424 657C424 651.477 428.521 647 434.099 647H515.901C521.479 647 526 651.477 526 657V727C526 732.523 521.479 737 515.901 737H434.099C428.521 737 424 732.523 424 727V657Z" fill="#DD2237"/>
<path d="M789 547C789 541.477 793.521 537 799.099 537H880.901C886.479 537 891 541.477 891 547V617C891 622.523 886.479 627 880.901 627H799.099C793.521 627 789 622.523 789 617V547Z" fill="#DD2237"/>
<g filter="url(#filter0_d)">
<path d="M546 767C546 761.477 550.521 757 556.099 757H637.901C643.479 757 648 761.477 648 767V837C648 842.523 643.479 847 637.901 847H556.099C550.521 847 546 842.523 546 837V767Z" fill="#3663F5"/>
</g>
<g filter="url(#filter1_d)">
<path d="M424 217C424 211.477 428.521 207 434.099 207H515.901C521.479 207 526 211.477 526 217V287C526 292.523 521.479 297 515.901 297H434.099C428.521 297 424 292.523 424 287V217Z" fill="#3663F5"/>
</g>
<path d="M181 437C181 431.477 185.477 427 191 427H272C277.523 427 282 431.477 282 437V507C282 512.523 277.523 517 272 517H191C185.477 517 181 512.523 181 507V437Z" fill="#9AB1FA"/>
<path d="M546 217C546 211.477 550.477 207 556 207H637C642.523 207 647 211.477 647 217V287C647 292.523 642.523 297 637 297H556C550.477 297 546 292.523 546 287V217Z" fill="#9AB1FA"/>
<path d="M302 107C302 101.477 306.521 97 312.099 97H393.901C399.479 97 404 101.477 404 107V177C404 182.523 399.479 187 393.901 187H312.099C306.521 187 302 182.523 302 177V107Z" fill="#9AB1FA"/>
<g filter="url(#filter2_d)">
<path d="M59 327C59 321.477 63.5215 317 69.099 317H150.901C156.479 317 161 321.477 161 327V397C161 402.523 156.479 407 150.901 407H69.099C63.5215 407 59 402.523 59 397V327Z" fill="#3663F5"/>
</g>
<g filter="url(#filter3_d)">
<path d="M546 657C546 651.477 550.521 647 556.099 647H637.901C643.479 647 648 651.477 648 657V727C648 732.523 643.479 737 637.901 737H556.099C550.521 737 546 732.523 546 727V657Z" fill="white"/>
</g>
<g filter="url(#filter4_d)">
<path d="M667 547C667 541.477 671.521 537 677.099 537H758.901C764.479 537 769 541.477 769 547V617C769 622.523 764.479 627 758.901 627H677.099C671.521 627 667 622.523 667 617V547Z" fill="white"/>
</g>
<g filter="url(#filter5_d)">
<path d="M667 437C667 431.477 671.521 427 677.099 427H758.901C764.479 427 769 431.477 769 437V507C769 512.523 764.479 517 758.901 517H677.099C671.521 517 667 512.523 667 507V437Z" fill="white"/>
</g>
<g filter="url(#filter6_d)">
<path d="M181 547C181 541.477 185.477 537 191 537H272C277.523 537 282 541.477 282 547V617C282 622.523 277.523 627 272 627H191C185.477 627 181 622.523 181 617V547Z" fill="white"/>
</g>
<path d="M302 327.133C302 321.537 306.477 317 312 317H637C642.523 317 647 321.537 647 327.133V616.867C647 622.463 642.523 627 637 627H312C306.477 627 302 622.463 302 616.867V327.133Z" fill="white"/>
<g filter="url(#filter7_d)">
<path d="M181 327C181 321.477 185.477 317 191 317H272C277.523 317 282 321.477 282 327V397C282 402.523 277.523 407 272 407H191C185.477 407 181 402.523 181 397V327Z" fill="white"/>
</g>
<g filter="url(#filter8_d)">
<path d="M302 217C302 211.477 306.521 207 312.099 207H393.901C399.479 207 404 211.477 404 217V287C404 292.523 399.479 297 393.901 297H312.099C306.521 297 302 292.523 302 287V217Z" fill="white"/>
</g>
<g filter="url(#filter9_d)">
<path d="M424 107C424 101.477 428.521 97 434.099 97H515.901C521.479 97 526 101.477 526 107V177C526 182.523 521.479 187 515.901 187H434.099C428.521 187 424 182.523 424 177V107Z" fill="white"/>
</g>
<g clip-path="url(#clip0)">
<path d="M473.041 494.948C473.98 494.803 474.935 494.803 475.874 494.948C476.937 495.096 477.956 495.473 478.859 496.053C479.762 496.633 480.528 497.402 481.105 498.308C482.467 500.575 482.982 503.252 482.558 505.863C482.356 508.171 481.261 510.309 479.506 511.821C478.466 512.561 477.283 513.077 476.032 513.337C474.782 513.596 473.491 513.593 472.242 513.328C470.563 513.072 469.027 512.237 467.901 510.967C466.313 509.058 465.508 506.617 465.649 504.138C465.578 502.85 465.771 501.561 466.214 500.35C466.658 499.138 467.343 498.03 468.228 497.091C469.507 495.8 471.225 495.035 473.041 494.948ZM468.7 499.016C467.449 501.098 467.01 503.568 467.465 505.954C467.612 507.08 468.017 508.157 468.647 509.101C469.276 510.046 470.115 510.834 471.097 511.403C472.423 512.055 473.923 512.263 475.376 511.994C476.829 511.726 478.156 510.996 479.161 509.913C480.663 507.906 481.316 505.388 480.978 502.903C480.783 501.039 479.971 499.294 478.671 497.945C478.044 497.334 477.293 496.866 476.468 496.571C475.644 496.277 474.766 496.163 473.894 496.237C472.863 496.218 471.844 496.463 470.935 496.949C470.025 497.436 469.256 498.147 468.7 499.016Z" fill="#202023"/>
<path d="M474.239 513.982C473.577 513.979 472.916 513.93 472.26 513.837C470.474 513.572 468.84 512.684 467.647 511.33C465.965 509.295 465.116 506.7 465.267 504.065C465.199 502.72 465.404 501.375 465.869 500.111C466.334 498.847 467.05 497.69 467.973 496.71C469.299 495.399 471.053 494.612 472.914 494.494C473.75 494.367 474.601 494.367 475.438 494.494H475.874C477.011 494.659 478.099 495.069 479.062 495.696C480.025 496.323 480.84 497.153 481.45 498.126C482.853 500.492 483.386 503.274 482.957 505.991C482.744 508.413 481.59 510.656 479.743 512.238C478.157 513.422 476.218 514.037 474.239 513.982ZM474.003 495.384C473.713 495.357 473.422 495.357 473.132 495.384C471.46 495.485 469.883 496.196 468.7 497.382C467.858 498.277 467.206 499.335 466.784 500.49C466.363 501.645 466.181 502.874 466.248 504.102C466.11 506.499 466.882 508.86 468.409 510.713C469.459 511.898 470.893 512.677 472.46 512.91C473.634 513.153 474.846 513.152 476.021 512.908C477.195 512.665 478.307 512.183 479.289 511.494C480.955 510.071 481.993 508.047 482.176 505.863C482.586 503.355 482.098 500.782 480.796 498.599C480.255 497.729 479.529 496.989 478.668 496.433C477.808 495.878 476.835 495.519 475.82 495.384H475.384C474.924 495.358 474.463 495.358 474.003 495.384ZM474.185 512.711C472.999 512.706 471.83 512.426 470.77 511.893C469.73 511.289 468.843 510.451 468.181 509.445C467.52 508.44 467.1 507.295 466.956 506.1C466.487 503.591 466.98 500.997 468.337 498.835C468.935 498.012 469.7 497.324 470.582 496.816C471.463 496.307 472.441 495.99 473.453 495.884C474.465 495.778 475.488 495.885 476.456 496.2C477.423 496.514 478.314 497.028 479.071 497.709C480.445 499.121 481.297 500.959 481.486 502.921C481.821 505.544 481.109 508.193 479.506 510.295C478.845 511.051 478.025 511.653 477.106 512.058C476.186 512.462 475.189 512.661 474.185 512.638V512.711ZM473.767 496.837C472.837 496.827 471.919 497.055 471.102 497.5C470.285 497.946 469.596 498.592 469.1 499.38C467.887 501.342 467.446 503.685 467.865 505.954C467.995 507.006 468.363 508.014 468.942 508.902C469.522 509.79 470.296 510.533 471.206 511.076C472.451 511.708 473.866 511.92 475.241 511.681C476.616 511.442 477.876 510.765 478.834 509.75C480.288 507.844 480.94 505.446 480.651 503.066C480.447 501.278 479.64 499.613 478.362 498.344C477.781 497.778 477.084 497.344 476.319 497.071C475.554 496.798 474.74 496.694 473.931 496.764L473.767 496.837Z" fill="#202023"/>
<path d="M430.124 497.2C430.871 496.456 431.767 495.877 432.752 495.502C433.738 495.126 434.792 494.962 435.845 495.021C437.713 494.877 439.574 495.384 441.112 496.455C441.511 496.655 441.384 497.127 441.402 497.509L440.821 497.799C439.683 497.175 438.459 496.722 437.189 496.455C435.73 496.229 434.236 496.425 432.884 497.018C431.895 497.579 431.05 498.364 430.419 499.31C429.788 500.257 429.389 501.338 429.252 502.467C429.012 503.752 429.03 505.072 429.305 506.351C429.579 507.629 430.104 508.84 430.85 509.914C431.529 510.67 432.375 511.257 433.321 511.629C434.267 512.001 435.287 512.148 436.299 512.057C437.916 512.065 439.505 511.632 440.894 510.804C440.894 508.987 440.894 507.298 440.894 505.555H436.953C436.637 505.582 436.319 505.532 436.026 505.409C435.959 505.302 435.916 505.182 435.901 505.056C435.886 504.931 435.898 504.804 435.938 504.684C435.978 504.564 436.045 504.454 436.132 504.363C436.219 504.272 436.326 504.201 436.444 504.156C438.042 504.156 439.641 504.156 441.239 504.156C441.597 504.145 441.951 504.239 442.256 504.429C442.365 506.081 442.256 507.77 442.256 509.441C442.309 510.046 442.309 510.653 442.256 511.258C441.851 511.715 441.348 512.075 440.785 512.311C438.228 513.536 435.305 513.756 432.594 512.928C431.572 512.583 430.645 512.007 429.882 511.245C429.12 510.482 428.544 509.554 428.198 508.533C427.563 506.641 427.328 504.637 427.508 502.649C427.715 500.582 428.64 498.654 430.124 497.2Z" fill="#202023"/>
<path d="M435.953 514C434.769 514.019 433.588 513.866 432.448 513.546C431.355 513.182 430.361 512.569 429.545 511.756C428.728 510.943 428.112 509.952 427.744 508.86C427.091 506.859 426.874 504.741 427.108 502.649C427.3 500.464 428.258 498.418 429.814 496.873C430.599 496.074 431.543 495.447 432.585 495.034C433.626 494.621 434.743 494.431 435.862 494.476C437.799 494.353 439.72 494.891 441.311 496.001C441.82 496.237 441.801 496.837 441.783 497.182V497.709L441.493 497.836L440.948 498.108L440.748 498.217L440.548 498.126L439.676 497.727C438.864 497.275 437.979 496.968 437.061 496.819C435.69 496.609 434.288 496.786 433.011 497.327C432.067 497.855 431.262 498.6 430.662 499.499C430.062 500.399 429.684 501.429 429.56 502.503C429.298 503.755 429.3 505.048 429.565 506.299C429.831 507.55 430.355 508.731 431.104 509.768C431.748 510.479 432.551 511.027 433.448 511.367C434.344 511.708 435.308 511.832 436.262 511.73C437.724 511.739 439.163 511.37 440.439 510.658C440.439 509.447 440.439 508.285 440.439 507.171V506.136H436.716C436.397 506.158 436.077 506.095 435.79 505.954H435.681C435.583 505.782 435.522 505.591 435.503 505.394C435.484 505.197 435.508 504.998 435.572 504.81C435.637 504.636 435.739 504.478 435.871 504.346C436.002 504.215 436.161 504.113 436.335 504.047H441.22C441.649 504.036 442.072 504.15 442.437 504.374L442.673 504.483V504.465C442.673 505.518 442.673 506.572 442.673 507.607V509.423C442.673 509.641 442.673 509.823 442.673 510.004C442.726 510.463 442.726 510.926 442.673 511.385L442.582 511.566C442.132 512.068 441.581 512.47 440.966 512.747C439.417 513.553 437.699 513.983 435.953 514ZM435.517 495.384C433.623 495.37 431.801 496.108 430.45 497.436C429.045 498.829 428.182 500.677 428.016 502.649C427.784 504.617 427.982 506.613 428.598 508.497C428.91 509.46 429.444 510.337 430.157 511.056C430.87 511.776 431.741 512.317 432.702 512.638C435.304 513.433 438.109 513.225 440.566 512.057C441.025 511.848 441.444 511.559 441.801 511.203C441.839 510.853 441.839 510.5 441.801 510.15C441.801 509.95 441.801 509.75 441.801 509.55V507.734C441.801 506.808 441.801 505.918 441.801 504.919C441.633 504.835 441.445 504.798 441.257 504.81H436.589C436.518 504.861 436.461 504.93 436.425 505.01C436.407 505.094 436.407 505.18 436.425 505.264C436.625 505.275 436.825 505.275 437.025 505.264H438.968C439.586 505.264 440.276 505.264 440.948 505.264H441.402V507.226C441.402 508.479 441.402 509.75 441.402 511.003V511.258L441.166 511.385C439.703 512.234 438.044 512.685 436.353 512.692C435.277 512.781 434.196 512.619 433.194 512.218C432.191 511.818 431.296 511.191 430.577 510.386C429.741 509.268 429.148 507.988 428.835 506.627C428.522 505.267 428.497 503.856 428.761 502.485C428.914 501.265 429.352 500.098 430.04 499.079C430.728 498.06 431.646 497.217 432.72 496.619C434.147 495.995 435.721 495.787 437.261 496.019C438.279 496.185 439.262 496.523 440.167 497.018L440.821 497.309H440.966C440.966 497.091 440.966 496.964 440.966 496.946C439.502 495.839 437.695 495.286 435.862 495.384H435.517Z" fill="#202023"/>
<path d="M448.595 495.511C449.41 495.234 450.259 495.069 451.119 495.021C453.499 494.632 455.939 495.123 457.984 496.401C458.621 497.06 459.078 497.872 459.311 498.758C459.543 499.644 459.544 500.576 459.312 501.463C459.08 502.349 458.624 503.161 457.988 503.821C457.351 504.48 456.556 504.965 455.678 505.228C457.113 507.407 458.457 509.605 459.873 511.802C459.988 511.971 460.062 512.163 460.091 512.365C460.119 512.566 460.101 512.772 460.037 512.965C459.947 513.07 459.833 513.152 459.704 513.203C459.576 513.255 459.437 513.274 459.299 513.26C459.162 513.245 459.03 513.198 458.915 513.121C458.799 513.044 458.705 512.941 458.638 512.82C457.094 510.44 455.587 508.025 454.061 505.555C452.681 505.555 451.301 505.555 449.902 505.555C449.902 507.916 449.902 510.277 449.902 512.638C449.902 513.437 448.431 513.455 448.467 512.638C448.467 509.26 448.467 505.882 448.467 502.503C448.558 500.197 448.449 497.836 448.595 495.511ZM449.975 496.583C449.975 499.107 449.975 501.668 449.975 504.211C451.128 504.389 452.299 504.432 453.462 504.338C454.805 504.359 456.105 503.865 457.094 502.957C457.451 502.488 457.712 501.953 457.861 501.382C458.011 500.812 458.046 500.218 457.966 499.634C457.966 499.093 457.813 498.564 457.523 498.107C457.234 497.65 456.821 497.285 456.332 497.055C454.302 496.29 452.095 496.126 449.975 496.583Z" fill="#202023"/>
<path d="M449.303 513.746C449.067 513.741 448.836 513.679 448.631 513.564C448.473 513.473 448.343 513.34 448.256 513.18C448.17 513.019 448.13 512.838 448.14 512.656C448.14 510.84 448.14 508.824 448.14 506.88C448.14 505.446 448.14 503.993 448.14 502.54C448.14 501.704 448.14 500.851 448.14 500.015C448.14 498.526 448.14 496.982 448.14 495.475V495.22L448.376 495.093C448.986 494.832 449.639 494.69 450.302 494.675H451.083C453.407 494.566 456.241 494.439 458.348 496.128C459.057 496.86 459.562 497.765 459.814 498.753C460.065 499.74 460.054 500.776 459.782 501.759C459.563 502.607 459.145 503.392 458.565 504.048C457.984 504.705 457.256 505.215 456.44 505.536C457.191 506.687 457.918 507.831 458.62 508.969C459.183 509.859 459.746 510.785 460.327 511.639C460.478 511.87 460.575 512.132 460.61 512.406C460.644 512.68 460.616 512.958 460.527 513.219V513.346C460.39 513.507 460.216 513.633 460.02 513.712C459.824 513.791 459.611 513.821 459.401 513.8C459.189 513.782 458.984 513.711 458.807 513.594C458.629 513.477 458.483 513.316 458.384 513.128C457.167 511.312 455.95 509.314 454.751 507.389L453.989 506.172C452.754 506.172 451.609 506.172 450.52 506.172V507.988C450.52 509.568 450.52 511.148 450.52 512.71C450.527 512.892 450.484 513.071 450.394 513.229C450.304 513.386 450.171 513.515 450.011 513.6C449.794 513.717 449.548 513.768 449.303 513.746ZM449.085 495.82C449.085 497.2 449.085 498.635 449.085 500.015C449.085 500.851 449.085 501.704 449.085 502.54C449.085 503.993 449.085 505.446 449.085 506.88C449.085 508.806 449.085 510.749 449.085 512.674V512.783C449.149 512.818 449.221 512.836 449.294 512.836C449.367 512.836 449.438 512.818 449.503 512.783C449.512 512.767 449.517 512.748 449.517 512.729C449.517 512.709 449.512 512.691 449.503 512.674C449.503 511.094 449.503 509.532 449.503 507.952V505.1H449.993C451.264 505.1 452.608 505.191 454.098 505.1H454.37L455.405 506.753C456.622 508.678 457.839 510.604 459.038 512.511C459.058 512.571 459.092 512.625 459.138 512.669C459.185 512.712 459.241 512.743 459.302 512.76C459.363 512.776 459.428 512.776 459.49 512.762C459.551 512.747 459.608 512.717 459.655 512.674C459.68 512.558 459.68 512.438 459.655 512.322C459.63 512.207 459.58 512.097 459.51 512.002L457.803 509.314C456.985 508.006 456.168 506.717 455.333 505.427L455.006 504.919L455.569 504.737C456.35 504.51 457.06 504.088 457.633 503.509C458.205 502.931 458.62 502.216 458.838 501.432C459.071 500.611 459.089 499.745 458.892 498.915C458.695 498.085 458.289 497.32 457.712 496.691C455.896 495.22 453.262 495.329 451.155 495.42C450.919 495.42 450.629 495.42 450.338 495.529C449.89 495.562 449.45 495.66 449.03 495.82H449.085ZM452.572 504.901C452.019 504.894 451.467 504.852 450.919 504.774H449.993H449.575V501.668C449.575 499.961 449.575 498.271 449.575 496.582V496.165H449.975C452.153 495.715 454.413 495.891 456.495 496.673C457.047 496.954 457.509 497.383 457.83 497.913C458.151 498.442 458.318 499.051 458.311 499.67C458.405 500.312 458.365 500.966 458.193 501.591C458.021 502.216 457.721 502.799 457.312 503.302C456.276 504.282 454.907 504.834 453.48 504.846C453.16 504.878 452.838 504.884 452.517 504.864L452.572 504.901ZM450.483 503.829H451.01C451.818 503.938 452.636 503.938 453.444 503.829C454.649 503.838 455.815 503.398 456.713 502.594C457.035 502.175 457.269 501.695 457.4 501.183C457.531 500.671 457.557 500.138 457.476 499.615C457.485 499.157 457.361 498.705 457.119 498.316C456.878 497.926 456.528 497.614 456.114 497.418C454.318 496.738 452.369 496.568 450.483 496.927C450.483 498.489 450.483 500.051 450.483 501.613V503.829Z" fill="#202023"/>
<path d="M489.259 495.22C489.372 495.156 489.499 495.121 489.629 495.119C489.759 495.116 489.887 495.146 490.002 495.205C490.118 495.265 490.216 495.352 490.29 495.46C490.363 495.567 490.408 495.691 490.421 495.82C490.421 499.343 490.421 502.867 490.421 506.39C490.363 508.002 490.9 509.579 491.929 510.822C492.461 511.316 493.093 511.69 493.782 511.919C494.472 512.148 495.202 512.226 495.924 512.148C496.718 512.157 497.499 511.955 498.189 511.563C498.878 511.17 499.451 510.601 499.847 509.914C500.559 508.242 500.846 506.42 500.683 504.61C500.683 501.668 500.683 498.762 500.683 495.82C500.683 494.948 502.227 494.966 502.136 495.82C502.136 499.343 502.136 502.867 502.136 506.39C502.196 508.232 501.639 510.04 500.556 511.53C499.939 512.208 499.179 512.741 498.331 513.089C497.482 513.438 496.568 513.594 495.652 513.546C494.77 513.633 493.879 513.537 493.036 513.266C492.192 512.994 491.414 512.551 490.748 511.966C489.441 510.419 488.738 508.451 488.769 506.426V496.001C488.777 495.84 488.826 495.684 488.912 495.547C488.998 495.41 489.117 495.298 489.259 495.22Z" fill="#202023"/>
<path d="M495.325 513.964C494.437 514.012 493.549 513.884 492.71 513.588C491.872 513.292 491.1 512.833 490.44 512.238C489.036 510.617 488.279 508.534 488.315 506.39V496.001C488.322 495.763 488.39 495.53 488.51 495.324C488.631 495.117 488.801 494.945 489.005 494.821C489.201 494.717 489.419 494.663 489.64 494.663C489.862 494.663 490.08 494.717 490.276 494.821C490.433 494.916 490.564 495.048 490.656 495.207C490.748 495.366 490.799 495.545 490.803 495.729C490.803 497.781 490.803 499.797 490.803 501.831V506.317C490.758 507.812 491.247 509.274 492.183 510.44C492.673 510.879 493.249 511.211 493.875 511.414C494.5 511.617 495.161 511.688 495.816 511.621C496.549 511.646 497.276 511.47 497.916 511.111C498.557 510.753 499.086 510.225 499.448 509.587C500.12 507.981 500.389 506.235 500.229 504.501V500.832C500.229 499.162 500.229 497.491 500.229 495.82C500.21 495.639 500.244 495.456 500.328 495.294C500.412 495.133 500.542 495 500.701 494.912C500.917 494.787 501.161 494.722 501.41 494.722C501.658 494.722 501.903 494.787 502.118 494.912C502.281 495.014 502.413 495.16 502.496 495.333C502.58 495.507 502.612 495.701 502.59 495.892C502.59 498.181 502.59 500.542 502.59 502.885V506.281C502.654 508.232 502.066 510.149 500.919 511.73C500.265 512.454 499.458 513.024 498.557 513.398C497.655 513.772 496.681 513.94 495.707 513.891H495.307L495.325 513.964ZM489.404 495.638C489.298 495.738 489.233 495.874 489.223 496.019V506.281C489.166 508.194 489.812 510.061 491.039 511.53C491.661 512.067 492.386 512.472 493.17 512.718C493.954 512.965 494.78 513.049 495.598 512.965C496.439 513.015 497.281 512.878 498.063 512.564C498.845 512.25 499.547 511.767 500.12 511.149C501.133 509.739 501.651 508.034 501.591 506.299V502.848C501.591 500.506 501.591 498.163 501.591 495.802V495.656C501.521 495.62 501.443 495.6 501.364 495.6C501.285 495.6 501.207 495.62 501.137 495.656V495.765C501.137 497.454 501.137 499.107 501.137 500.778V504.556C501.295 506.416 500.995 508.286 500.265 510.004C499.831 510.784 499.192 511.431 498.418 511.876C497.643 512.321 496.763 512.546 495.87 512.529C495.088 512.605 494.298 512.515 493.553 512.264C492.809 512.014 492.125 511.609 491.548 511.076C490.457 509.74 489.878 508.06 489.913 506.336V501.904C489.913 499.888 489.913 497.854 489.913 495.82C489.91 495.785 489.899 495.752 489.88 495.724C489.861 495.695 489.835 495.672 489.804 495.656C489.744 495.622 489.676 495.602 489.606 495.599C489.537 495.595 489.468 495.609 489.404 495.638Z" fill="#202023"/>
<path d="M509.347 495.475C510.998 495.073 512.699 494.914 514.396 495.002C515.39 494.937 516.385 495.101 517.304 495.482C518.224 495.863 519.044 496.451 519.7 497.2C520.163 497.991 520.451 498.872 520.545 499.784C520.639 500.695 520.537 501.617 520.245 502.485C519.96 503.227 519.512 503.895 518.934 504.439C518.355 504.983 517.661 505.39 516.903 505.627C514.893 506.255 512.758 506.374 510.691 505.972C510.691 508.206 510.691 510.404 510.691 512.638C510.6 513.437 509.365 513.437 509.147 512.638V496.292C509.164 496.01 509.231 495.733 509.347 495.475ZM510.709 496.601C510.709 499.271 510.709 501.959 510.709 504.647C512.002 504.834 513.312 504.877 514.614 504.774C515.43 504.763 516.229 504.536 516.928 504.114C517.627 503.693 518.201 503.093 518.592 502.376C518.982 501.434 519.071 500.393 518.846 499.398C518.736 498.786 518.459 498.216 518.045 497.751C517.632 497.286 517.098 496.945 516.503 496.764C514.607 496.284 512.629 496.228 510.709 496.601Z" fill="#202023"/>
<path d="M509.91 513.764C509.643 513.77 509.381 513.691 509.162 513.537C508.943 513.383 508.779 513.164 508.694 512.91V496.564C508.681 496.15 508.768 495.739 508.948 495.366L509.039 495.184H509.238C510.718 494.792 512.25 494.633 513.779 494.712H514.397C515.466 494.608 516.545 494.761 517.544 495.159C518.542 495.557 519.431 496.189 520.136 497C520.625 497.848 520.926 498.792 521.017 499.767C521.108 500.742 520.987 501.725 520.662 502.649C520.362 503.464 519.878 504.199 519.248 504.797C518.619 505.396 517.86 505.841 517.03 506.099C515.125 506.713 513.102 506.862 511.127 506.535V507.897C511.127 509.496 511.127 511.076 511.127 512.692C511.102 512.966 510.981 513.223 510.785 513.415C510.588 513.608 510.33 513.725 510.056 513.746L509.91 513.764ZM509.584 512.692C509.626 512.752 509.684 512.799 509.751 512.827C509.819 512.856 509.893 512.866 509.965 512.856C510.128 512.856 510.201 512.856 510.219 512.638C510.219 511.094 510.219 509.496 510.219 507.916V505.5H510.746C512.734 505.889 514.787 505.776 516.721 505.173C517.415 504.96 518.051 504.593 518.583 504.099C519.114 503.605 519.527 502.998 519.791 502.322C520.066 501.517 520.165 500.663 520.08 499.816C519.995 498.97 519.729 498.152 519.3 497.418C518.699 496.713 517.94 496.162 517.084 495.808C516.229 495.454 515.301 495.309 514.378 495.384H513.761C512.395 495.321 511.026 495.443 509.693 495.747C509.612 495.949 509.575 496.166 509.584 496.383V512.601V512.692ZM513.652 505.337C513.129 505.322 512.608 505.28 512.09 505.209C511.632 505.146 511.171 505.11 510.71 505.101H510.274V504.646C510.274 503.302 510.274 501.958 510.274 500.614V496.183H510.673C512.642 495.805 514.67 495.867 516.612 496.365C517.301 496.56 517.921 496.944 518.403 497.474C518.884 498.003 519.208 498.657 519.337 499.361C519.566 500.436 519.471 501.555 519.064 502.576C518.427 503.424 517.605 504.116 516.661 504.601C515.718 505.085 514.676 505.349 513.616 505.373L513.652 505.337ZM511.182 504.211C511.517 504.229 511.85 504.265 512.181 504.32C512.963 504.438 513.759 504.438 514.542 504.32C515.279 504.299 515.999 504.091 516.634 503.717C517.27 503.342 517.8 502.812 518.174 502.176C518.521 501.325 518.604 500.388 518.41 499.488C518.3 498.954 518.048 498.46 517.68 498.057C517.313 497.655 516.843 497.358 516.322 497.2C514.635 496.774 512.876 496.712 511.164 497.018V500.651C511.164 501.813 511.164 503.012 511.182 504.211Z" fill="#202023"/>
<path d="M527.702 456.678C528.441 454.321 529.179 451.964 529.869 449.542C530.512 451.1 531.012 452.828 531.471 454.413C531.531 454.62 531.59 454.825 531.649 455.027C531.85 455.713 532.067 456.383 532.284 457.053C532.619 458.085 532.954 459.12 533.229 460.221H526.6C526.964 459.035 527.333 457.856 527.702 456.678Z" fill="#2E50BC"/>
<path fill-rule="evenodd" clip-rule="evenodd" d="M503.589 430H555.115V482.543H503.589V430ZM535.635 467.566C536.069 468.969 536.506 470.381 536.953 471.773H544.962C541.112 461.433 537.28 451.068 533.466 440.679H526.401C524.261 446.441 522.15 452.202 520.039 457.964C518.35 462.573 516.662 467.182 514.958 471.791H522.986C523.356 470.67 523.702 469.536 524.048 468.401C524.296 467.587 524.544 466.772 524.802 465.961H535.137C535.302 466.494 535.468 467.029 535.635 467.566Z" fill="#2E50BC"/>
<path d="M444.544 482.543V430H393V482.543C410.181 482.567 427.363 482.567 444.544 482.543ZM422.314 460.876C420.336 459.78 418.248 458.897 416.084 458.242C413.437 457.422 411.059 455.903 409.201 453.847C408.396 452.84 407.852 451.65 407.618 450.383C407.383 449.116 407.465 447.81 407.857 446.582C408.53 444.642 409.903 443.023 411.707 442.042C414.274 440.684 417.163 440.056 420.062 440.225C423.162 440.205 426.159 441.338 428.471 443.404C429.356 444.248 430.051 445.271 430.511 446.404C430.972 447.538 431.186 448.756 431.141 449.978C428.634 449.978 426.146 449.978 423.658 449.978C423.69 449.486 423.621 448.991 423.455 448.526C423.29 448.061 423.031 447.634 422.695 447.272C422.077 446.722 421.334 446.33 420.53 446.13C419.726 445.931 418.886 445.93 418.082 446.128C417.325 446.186 416.611 446.5 416.056 447.018C415.501 447.537 415.14 448.228 415.031 448.979C415.034 449.458 415.16 449.927 415.395 450.343C415.63 450.759 415.967 451.109 416.375 451.359C418.04 452.343 419.83 453.101 421.696 453.611C424.439 454.39 426.938 455.852 428.961 457.861C429.702 458.652 430.277 459.583 430.651 460.6C431.025 461.617 431.192 462.699 431.141 463.782C431.158 464.947 430.9 466.1 430.389 467.148C429.878 468.195 429.127 469.108 428.198 469.811C425.629 471.58 422.538 472.431 419.426 472.227C416.135 472.297 412.91 471.296 410.236 469.376C409.07 468.474 408.134 467.31 407.503 465.978C406.872 464.646 406.564 463.184 406.603 461.711H414.068C414.02 463.039 414.474 464.336 415.339 465.344C416.558 466.274 418.081 466.714 419.608 466.579C420.3 466.652 420.999 466.543 421.636 466.262C422.273 465.982 422.826 465.54 423.24 464.98C423.613 464.301 423.724 463.509 423.553 462.753C423.383 461.997 422.942 461.329 422.314 460.876Z" fill="#DD2237"/>
<path d="M499.848 430H448.268V482.543H499.848V430ZM469.499 449.397C469.689 449.978 470.005 450.51 470.426 450.953C470.847 451.396 471.362 451.739 471.933 451.958C474.367 453.157 477.073 453.665 479.488 454.918C481.987 455.95 483.995 457.9 485.1 460.367C485.602 461.703 485.763 463.143 485.569 464.557C485.376 465.971 484.834 467.315 483.993 468.467C482.288 470.362 479.963 471.586 477.436 471.918C473.971 472.541 470.4 472.144 467.156 470.774C465.248 469.99 463.625 468.64 462.507 466.906C461.543 465.332 461.04 463.52 461.054 461.675H468.555C468.521 462.935 468.926 464.167 469.699 465.162C470.902 466.174 472.453 466.676 474.022 466.56C474.714 466.617 475.41 466.499 476.044 466.217C476.679 465.934 477.233 465.497 477.654 464.944C477.989 464.276 478.086 463.513 477.927 462.783C477.769 462.053 477.364 461.399 476.782 460.93C475.082 459.894 473.249 459.094 471.334 458.551C468.328 457.707 465.621 456.033 463.524 453.72C462.477 452.345 461.921 450.658 461.944 448.93C461.967 447.202 462.568 445.531 463.651 444.185C465.949 441.787 469.103 440.396 472.423 440.316C476.015 439.887 479.631 440.878 482.503 443.077C483.49 443.934 484.28 444.995 484.819 446.186C485.358 447.377 485.634 448.671 485.627 449.978H478.144C478.143 449.024 477.824 448.097 477.236 447.345C476.559 446.714 475.726 446.273 474.823 446.069C473.92 445.865 472.979 445.904 472.096 446.182C471.343 446.303 470.66 446.698 470.181 447.291C469.701 447.885 469.458 448.635 469.499 449.397Z" fill="#2E50BC"/>
</g>
<path d="M249.799 560.455H214.089C213.489 560.455 213 560.945 213 561.529V604.911C213 605.511 213.489 606 214.089 606H249.799C250.399 606 250.888 605.511 250.888 604.911V561.529C250.888 560.945 250.399 560.455 249.799 560.455Z" fill="#9AB1FA"/>
<path d="M248.094 563.25H215.811V603.19H248.094V563.25Z" fill="white"/>
<path d="M238.342 558H225.937C224.832 558 223.937 558.895 223.937 560V561.468C223.937 562.573 224.832 563.468 225.937 563.468H238.342C239.446 563.468 240.342 562.573 240.342 561.468V560C240.342 558.895 239.446 558 238.342 558Z" fill="#3663F5"/>
<path d="M245.568 570.022H218.32V571.838H245.568V570.022Z" fill="#9AB1FA"/>
<path d="M245.568 576.179H218.32V577.995H245.568V576.179Z" fill="#9AB1FA"/>
<path d="M245.568 582.32H218.32V584.136H245.568V582.32Z" fill="#9AB1FA"/>
<path d="M245.568 588.477H218.32V590.292H245.568V588.477Z" fill="#9AB1FA"/>
<path d="M245.568 594.618H218.32V596.433H245.568V594.618Z" fill="#9AB1FA"/>
<path d="M619.746 672H574.92C574.294 672 573.799 672.511 573.799 673.121V706.007C573.799 706.633 574.31 707.128 574.92 707.128H619.746C620.372 707.128 620.867 706.617 620.867 706.007V673.121C620.867 672.495 620.356 672 619.746 672Z" fill="#3663F5"/>
<path d="M617.349 675.605H577.9V703.113H617.349V675.605Z" fill="white"/>
<path d="M569 707.128V710.872C569 712.026 569.94 712.966 571.094 712.966H623.572C624.727 712.966 625.667 712.026 625.667 710.872V707.128H569Z" fill="#3663F5"/>
<path d="M593.49 708.942H574.706V711.136H593.49V708.942Z" fill="white"/>
<path d="M603.435 708.942H601.044V711.136H603.435V708.942Z" fill="white"/>
<path d="M608.944 708.942H606.553V711.136H608.944V708.942Z" fill="white"/>
<path d="M614.452 708.942H612.061V711.136H614.452V708.942Z" fill="white"/>
<path d="M619.961 708.942H617.569V711.136H619.961V708.942Z" fill="white"/>
<path d="M609.081 703.04L609.227 703.333H601.286C603.323 702.101 604.685 699.872 604.685 697.32C604.685 693.448 601.55 690.295 597.667 690.295C593.784 690.295 590.649 693.433 590.649 697.32C590.649 699.872 592.011 702.101 594.048 703.333H586.107L586.253 703.04C585.975 702.497 585.74 701.925 585.55 701.353L581.667 700.136V694.519L585.55 693.301C585.74 692.715 585.975 692.157 586.253 691.615L584.363 688.007L588.334 684.032L591.938 685.924C592.48 685.645 593.052 685.411 593.623 685.22L594.839 681.333H600.451L601.667 685.22C602.253 685.411 602.81 685.645 603.352 685.924L606.956 684.032L610.927 688.007L609.081 691.6C609.359 692.143 609.594 692.715 609.784 693.287L613.667 694.504V700.121L609.784 701.339C609.579 701.925 609.345 702.497 609.081 703.04Z" fill="#9AB1FA"/>
<path d="M737.23 583.79H729.731V585.932H737.23V583.79Z" fill="#9AB1FA"/>
<path d="M706.165 583.79H698.667V585.932H706.165V583.79Z" fill="#9AB1FA"/>
<path d="M708.254 594.502L702.952 599.804L704.467 601.319L709.769 596.017L708.254 594.502Z" fill="#9AB1FA"/>
<path d="M726.961 594.502L732.263 599.804L730.748 601.319L725.446 596.017L726.961 594.502Z" fill="#9AB1FA"/>
<path d="M726.961 575.611L732.263 570.309L730.748 568.794L725.446 574.096L726.961 575.611Z" fill="#9AB1FA"/>
<path d="M708.254 575.611L702.952 570.309L704.467 568.794L709.769 574.096L708.254 575.611Z" fill="#9AB1FA"/>
<path d="M724.189 570.982C724.411 570.303 724.529 569.598 724.529 568.841C724.529 565.068 721.461 562 717.688 562C713.915 562 710.848 565.068 710.848 568.841C710.848 569.585 710.965 570.303 711.187 570.982C713.093 569.585 715.312 568.775 717.688 568.775C720.064 568.775 722.27 569.585 724.189 570.982Z" fill="#9AB1FA"/>
<path d="M724.19 571C722.284 569.603 720.064 568.794 717.688 568.794C715.312 568.794 713.106 569.59 711.187 571C707.336 573.833 704.738 579.094 704.738 585.125C704.738 594.146 710.534 601.456 717.688 601.456C724.842 601.456 730.638 594.146 730.638 585.125C730.638 579.094 728.041 573.833 724.19 571Z" fill="#3663F5"/>
<path d="M719.019 583.79H716.877V602H719.019V583.79Z" fill="white"/>
<path d="M736.662 454.052H699.339V490.139H736.662V454.052Z" fill="#3663F5"/>
<path d="M738.562 462.432H697.437C697.104 462.432 696.835 462.162 696.835 461.83V451.691C696.835 451.358 697.104 451.089 697.437 451.089H738.562C738.894 451.089 739.164 451.358 739.164 451.691V461.83C739.164 462.162 738.894 462.432 738.562 462.432Z" fill="#9AB1FA"/>
<path d="M738.562 477.655H697.437C697.104 477.655 696.835 477.386 696.835 477.053V466.915C696.835 466.582 697.104 466.313 697.437 466.313H738.562C738.894 466.313 739.164 466.582 739.164 466.915V477.053C739.164 477.402 738.894 477.655 738.562 477.655Z" fill="#9AB1FA"/>
<path d="M738.562 492.895H697.437C697.104 492.895 696.835 492.626 696.835 492.293V482.154C696.835 481.822 697.104 481.552 697.437 481.552H738.562C738.894 481.552 739.164 481.822 739.164 482.154V492.293C739.164 492.626 738.894 492.895 738.562 492.895Z" fill="#9AB1FA"/>
<path d="M702.285 458.978C703.501 458.978 704.487 457.992 704.487 456.776C704.487 455.56 703.501 454.574 702.285 454.574C701.069 454.574 700.083 455.56 700.083 456.776C700.083 457.992 701.069 458.978 702.285 458.978Z" fill="#3663F5"/>
<path d="M708.669 458.978C709.885 458.978 710.871 457.992 710.871 456.776C710.871 455.56 709.885 454.574 708.669 454.574C707.453 454.574 706.467 455.56 706.467 456.776C706.467 457.992 707.453 458.978 708.669 458.978Z" fill="white"/>
<path d="M715.069 458.978C716.285 458.978 717.271 457.992 717.271 456.776C717.271 455.56 716.285 454.574 715.069 454.574C713.853 454.574 712.867 455.56 712.867 456.776C712.867 457.992 713.853 458.978 715.069 458.978Z" fill="white"/>
<path d="M702.285 474.297C703.501 474.297 704.487 473.311 704.487 472.095C704.487 470.879 703.501 469.893 702.285 469.893C701.069 469.893 700.083 470.879 700.083 472.095C700.083 473.311 701.069 474.297 702.285 474.297Z" fill="#3663F5"/>
<path d="M708.669 474.297C709.885 474.297 710.871 473.311 710.871 472.095C710.871 470.879 709.885 469.893 708.669 469.893C707.453 469.893 706.467 470.879 706.467 472.095C706.467 473.311 707.453 474.297 708.669 474.297Z" fill="white"/>
<path d="M715.069 474.297C716.285 474.297 717.271 473.311 717.271 472.095C717.271 470.879 716.285 469.893 715.069 469.893C713.853 469.893 712.867 470.879 712.867 472.095C712.867 473.311 713.853 474.297 715.069 474.297Z" fill="white"/>
<path d="M702.285 489.616C703.501 489.616 704.487 488.63 704.487 487.414C704.487 486.198 703.501 485.212 702.285 485.212C701.069 485.212 700.083 486.198 700.083 487.414C700.083 488.63 701.069 489.616 702.285 489.616Z" fill="#3663F5"/>
<path d="M708.669 489.616C709.885 489.616 710.871 488.63 710.871 487.414C710.871 486.198 709.885 485.212 708.669 485.212C707.453 485.212 706.467 486.198 706.467 487.414C706.467 488.63 707.453 489.616 708.669 489.616Z" fill="white"/>
<path d="M715.069 489.616C716.285 489.616 717.271 488.63 717.271 487.414C717.271 486.198 716.285 485.212 715.069 485.212C713.853 485.212 712.867 486.198 712.867 487.414C712.867 488.63 713.853 489.616 715.069 489.616Z" fill="white"/>
<path d="M244.045 382L252 374.045L219.955 342L212 349.955L244.045 382Z" fill="#9AB1FA"/>
<path d="M215.2 353.146L218.271 350.075L216.708 348.513L213.637 351.583L215.2 353.146Z" fill="#3663F5"/>
<path d="M218.596 356.549L222.978 352.167L221.415 350.605L217.034 354.986L218.596 356.549Z" fill="#3663F5"/>
<path d="M221.999 359.956L225.069 356.885L223.507 355.323L220.436 358.393L221.999 359.956Z" fill="#3663F5"/>
<path d="M225.403 363.35L229.784 358.968L228.222 357.406L223.84 361.787L225.403 363.35Z" fill="#3663F5"/>
<path d="M228.799 366.748L231.87 363.677L230.308 362.115L227.237 365.185L228.799 366.748Z" fill="#3663F5"/>
<path d="M232.203 370.16L236.585 365.778L235.023 364.216L230.641 368.597L232.203 370.16Z" fill="#3663F5"/>
<path d="M235.597 373.558L238.668 370.487L237.106 368.925L234.035 371.996L235.597 373.558Z" fill="#3663F5"/>
<path d="M239.002 376.952L243.384 372.57L241.821 371.008L237.44 375.39L239.002 376.952Z" fill="#3663F5"/>
<path d="M242.407 380.359L245.478 377.288L243.915 375.726L240.845 378.797L242.407 380.359Z" fill="#3663F5"/>
<path d="M239.272 355.012C237.24 352.98 233.913 353.132 232.085 355.342L214.053 377.056C213.304 377.957 213.368 379.265 214.193 380.09C215.018 380.916 216.326 380.979 217.228 380.23L238.941 362.199C241.138 360.37 241.291 357.031 239.272 355.012Z" fill="#3663F5"/>
<path d="M246.573 355.012C244.554 357.031 241.291 357.031 239.272 355.012C237.253 352.993 237.253 349.729 239.272 347.71C241.291 345.691 251.868 341.564 250.319 343.964C247.043 349.018 248.58 352.993 246.573 355.012Z" fill="#9AB1FA"/>
<path d="M325 252.668V248.279L340.537 240.965V245.656L330.271 250.398L340.537 255.266V260.008L325 252.668Z" fill="#3663F5"/>
<path d="M357.157 237.333H361.697L348.254 266.667H343.739L357.157 237.333Z" fill="#3663F5"/>
<path d="M380.438 248.28V252.668L364.901 259.983V255.241L375.167 250.373L364.901 245.631V240.94L380.438 248.28Z" fill="#3663F5"/>
<path d="M458 119.798V164.202C458 165.193 458.807 166 459.798 166H489.731C490.721 166 491.528 165.193 491.528 164.202V119.798C491.528 118.807 490.721 118 489.731 118H459.782C458.792 118 458 118.807 458 119.798Z" fill="#3663F5"/>
<path d="M488.344 121.595H461.168V156.632H488.344V121.595Z" fill="white"/>
<path d="M474.757 164.477C476.507 164.477 477.926 163.058 477.926 161.308C477.926 159.558 476.507 158.14 474.757 158.14C473.007 158.14 471.589 159.558 471.589 161.308C471.589 163.058 473.007 164.477 474.757 164.477Z" fill="white"/>
<path d="M468.556 159.937H461.168V162.679H468.556V159.937Z" fill="#9AB1FA"/>
<path d="M488.344 159.937H480.956V162.679H488.344V159.937Z" fill="white"/>
<defs>
<filter id="filter0_d" x="531" y="746" width="132" height="120" filterUnits="userSpaceOnUse" color-interpolation-filters="sRGB">
<feFlood flood-opacity="0" result="BackgroundImageFix"/>
<feColorMatrix in="SourceAlpha" type="matrix" values="0 0 0 0 0 0 0 0 0 0 0 0 0 0 0 0 0 0 127 0"/>
<feOffset dy="4"/>
<feGaussianBlur stdDeviation="7.5"/>
<feColorMatrix type="matrix" values="0 0 0 0 0.211765 0 0 0 0 0.388235 0 0 0 0 0.960784 0 0 0 0.24 0"/>
<feBlend mode="normal" in2="BackgroundImageFix" result="effect1_dropShadow"/>
<feBlend mode="normal" in="SourceGraphic" in2="effect1_dropShadow" result="shape"/>
</filter>
<filter id="filter1_d" x="409" y="196" width="132" height="120" filterUnits="userSpaceOnUse" color-interpolation-filters="sRGB">
<feFlood flood-opacity="0" result="BackgroundImageFix"/>
<feColorMatrix in="SourceAlpha" type="matrix" values="0 0 0 0 0 0 0 0 0 0 0 0 0 0 0 0 0 0 127 0"/>
<feOffset dy="4"/>
<feGaussianBlur stdDeviation="7.5"/>
<feColorMatrix type="matrix" values="0 0 0 0 0.211765 0 0 0 0 0.388235 0 0 0 0 0.960784 0 0 0 0.24 0"/>
<feBlend mode="normal" in2="BackgroundImageFix" result="effect1_dropShadow"/>
<feBlend mode="normal" in="SourceGraphic" in2="effect1_dropShadow" result="shape"/>
</filter>
<filter id="filter2_d" x="44" y="306" width="132" height="120" filterUnits="userSpaceOnUse" color-interpolation-filters="sRGB">
<feFlood flood-opacity="0" result="BackgroundImageFix"/>
<feColorMatrix in="SourceAlpha" type="matrix" values="0 0 0 0 0 0 0 0 0 0 0 0 0 0 0 0 0 0 127 0"/>
<feOffset dy="4"/>
<feGaussianBlur stdDeviation="7.5"/>
<feColorMatrix type="matrix" values="0 0 0 0 0.211765 0 0 0 0 0.388235 0 0 0 0 0.960784 0 0 0 0.24 0"/>
<feBlend mode="normal" in2="BackgroundImageFix" result="effect1_dropShadow"/>
<feBlend mode="normal" in="SourceGraphic" in2="effect1_dropShadow" result="shape"/>
</filter>
<filter id="filter3_d" x="525" y="626" width="152" height="140" filterUnits="userSpaceOnUse" color-interpolation-filters="sRGB">
<feFlood flood-opacity="0" result="BackgroundImageFix"/>
<feColorMatrix in="SourceAlpha" type="matrix" values="0 0 0 0 0 0 0 0 0 0 0 0 0 0 0 0 0 0 127 0"/>
<feOffset dx="4" dy="4"/>
<feGaussianBlur stdDeviation="12.5"/>
<feColorMatrix type="matrix" values="0 0 0 0 0.293854 0 0 0 0 0.483438 0 0 0 0 0.758333 0 0 0 0.15 0"/>
<feBlend mode="normal" in2="BackgroundImageFix" result="effect1_dropShadow"/>
<feBlend mode="normal" in="SourceGraphic" in2="effect1_dropShadow" result="shape"/>
</filter>
<filter id="filter4_d" x="646" y="516" width="152" height="140" filterUnits="userSpaceOnUse" color-interpolation-filters="sRGB">
<feFlood flood-opacity="0" result="BackgroundImageFix"/>
<feColorMatrix in="SourceAlpha" type="matrix" values="0 0 0 0 0 0 0 0 0 0 0 0 0 0 0 0 0 0 127 0"/>
<feOffset dx="4" dy="4"/>
<feGaussianBlur stdDeviation="12.5"/>
<feColorMatrix type="matrix" values="0 0 0 0 0.293854 0 0 0 0 0.483438 0 0 0 0 0.758333 0 0 0 0.15 0"/>
<feBlend mode="normal" in2="BackgroundImageFix" result="effect1_dropShadow"/>
<feBlend mode="normal" in="SourceGraphic" in2="effect1_dropShadow" result="shape"/>
</filter>
<filter id="filter5_d" x="646" y="406" width="152" height="140" filterUnits="userSpaceOnUse" color-interpolation-filters="sRGB">
<feFlood flood-opacity="0" result="BackgroundImageFix"/>
<feColorMatrix in="SourceAlpha" type="matrix" values="0 0 0 0 0 0 0 0 0 0 0 0 0 0 0 0 0 0 127 0"/>
<feOffset dx="4" dy="4"/>
<feGaussianBlur stdDeviation="12.5"/>
<feColorMatrix type="matrix" values="0 0 0 0 0.293854 0 0 0 0 0.483438 0 0 0 0 0.758333 0 0 0 0.15 0"/>
<feBlend mode="normal" in2="BackgroundImageFix" result="effect1_dropShadow"/>
<feBlend mode="normal" in="SourceGraphic" in2="effect1_dropShadow" result="shape"/>
</filter>
<filter id="filter6_d" x="160" y="516" width="151" height="140" filterUnits="userSpaceOnUse" color-interpolation-filters="sRGB">
<feFlood flood-opacity="0" result="BackgroundImageFix"/>
<feColorMatrix in="SourceAlpha" type="matrix" values="0 0 0 0 0 0 0 0 0 0 0 0 0 0 0 0 0 0 127 0"/>
<feOffset dx="4" dy="4"/>
<feGaussianBlur stdDeviation="12.5"/>
<feColorMatrix type="matrix" values="0 0 0 0 0.293854 0 0 0 0 0.483438 0 0 0 0 0.758333 0 0 0 0.15 0"/>
<feBlend mode="normal" in2="BackgroundImageFix" result="effect1_dropShadow"/>
<feBlend mode="normal" in="SourceGraphic" in2="effect1_dropShadow" result="shape"/>
</filter>
<filter id="filter7_d" x="160" y="296" width="151" height="140" filterUnits="userSpaceOnUse" color-interpolation-filters="sRGB">
<feFlood flood-opacity="0" result="BackgroundImageFix"/>
<feColorMatrix in="SourceAlpha" type="matrix" values="0 0 0 0 0 0 0 0 0 0 0 0 0 0 0 0 0 0 127 0"/>
<feOffset dx="4" dy="4"/>
<feGaussianBlur stdDeviation="12.5"/>
<feColorMatrix type="matrix" values="0 0 0 0 0.293854 0 0 0 0 0.483438 0 0 0 0 0.758333 0 0 0 0.15 0"/>
<feBlend mode="normal" in2="BackgroundImageFix" result="effect1_dropShadow"/>
<feBlend mode="normal" in="SourceGraphic" in2="effect1_dropShadow" result="shape"/>
</filter>
<filter id="filter8_d" x="281" y="186" width="152" height="140" filterUnits="userSpaceOnUse" color-interpolation-filters="sRGB">
<feFlood flood-opacity="0" result="BackgroundImageFix"/>
<feColorMatrix in="SourceAlpha" type="matrix" values="0 0 0 0 0 0 0 0 0 0 0 0 0 0 0 0 0 0 127 0"/>
<feOffset dx="4" dy="4"/>
<feGaussianBlur stdDeviation="12.5"/>
<feColorMatrix type="matrix" values="0 0 0 0 0.293854 0 0 0 0 0.483438 0 0 0 0 0.758333 0 0 0 0.15 0"/>
<feBlend mode="normal" in2="BackgroundImageFix" result="effect1_dropShadow"/>
<feBlend mode="normal" in="SourceGraphic" in2="effect1_dropShadow" result="shape"/>
</filter>
<filter id="filter9_d" x="403" y="76" width="152" height="140" filterUnits="userSpaceOnUse" color-interpolation-filters="sRGB">
<feFlood flood-opacity="0" result="BackgroundImageFix"/>
<feColorMatrix in="SourceAlpha" type="matrix" values="0 0 0 0 0 0 0 0 0 0 0 0 0 0 0 0 0 0 127 0"/>
<feOffset dx="4" dy="4"/>
<feGaussianBlur stdDeviation="12.5"/>
<feColorMatrix type="matrix" values="0 0 0 0 0.293854 0 0 0 0 0.483438 0 0 0 0 0.758333 0 0 0 0.15 0"/>
<feBlend mode="normal" in2="BackgroundImageFix" result="effect1_dropShadow"/>
<feBlend mode="normal" in="SourceGraphic" in2="effect1_dropShadow" result="shape"/>
</filter>
<radialGradient id="paint0_radial" cx="0" cy="0" r="1" gradientUnits="userSpaceOnUse" gradientTransform="translate(472 472) rotate(90) scale(845.683)">
<stop stop-color="#3663F5"/>
<stop offset="0.522742" stop-color="#3663F5" stop-opacity="0"/>
</radialGradient>
<clipPath id="clip0">
<rect width="162.115" height="84" fill="white" transform="translate(393 430)"/>
</clipPath>
</defs>
</svg>
