<svg xmlns="http://www.w3.org/2000/svg" width="34" height="42" viewBox="0 0 34 42" fill="none"><path d="M33 11V31C33 39 31 41 23 41H11C3 41 1 39 1 31V11C1 3 3 1 11 1H23C31 1 33 3 33 11Z" stroke="#3A3A3A" stroke-width="2" stroke-linecap="round" stroke-linejoin="round"></path><path d="M21 8H13" stroke="#3A3A3A" stroke-width="2" stroke-linecap="round" stroke-linejoin="round"></path><path d="M16.9999 35.2C18.712 35.2 20.0999 33.8121 20.0999 32.1C20.0999 30.3879 18.712 29 16.9999 29C15.2878 29 13.8999 30.3879 13.8999 32.1C13.8999 33.8121 15.2878 35.2 16.9999 35.2Z" stroke="#3A3A3A" stroke-width="2" stroke-linecap="round" stroke-linejoin="round"></path></svg>