<svg xmlns:mydata="http://www.w3.org/2000/svg" mydata:contrastcolor="A7A8AA" mydata:template="Contrast" mydata:presentation="2.5" mydata:layouttype="undefined" mydata:specialfontid="undefined" mydata:id1="703" mydata:id2="176" mydata:companyname="SSA" mydata:companytagline="" version="1.1" xmlns="http://www.w3.org/2000/svg" xmlns:xlink="http://www.w3.org/1999/xlink" viewBox="0 0 550 470"><g fill="#101820" fill-rule="nonzero" stroke="none" stroke-width="1" stroke-linecap="butt" stroke-linejoin="miter" stroke-miterlimit="10" stroke-dasharray="" stroke-dashoffset="0" font-family="none" font-weight="none" font-size="none" text-anchor="none" style="mix-blend-mode: normal"><g data-paper-data="{&quot;isGlobalGroup&quot;:true,&quot;bounds&quot;:{&quot;x&quot;:160.95282944909806,&quot;y&quot;:167.03896668153976,&quot;width&quot;:228.09434110180385,&quot;height&quot;:135.92206663692048}}"><g data-paper-data="{&quot;isPrimaryText&quot;:true}"><path d="M174.69381,179.98959c-4.29053,4.34851 -6.89963,8.26217 -7.82732,11.74098c-0.92768,3.24689 -1.39153,7.3055 -1.39153,12.17583c0,5.79801 0.63778,10.43642 1.91334,13.91523c0.79953,2.17785 2.42139,5.38079 4.86558,9.60882c2.44418,4.22803 5.56666,8.25946 9.36744,12.09428c4.19827,4.23602 8.3861,7.67823 12.56349,10.32664c4.1774,2.64841 8.27219,6.01133 12.28438,10.08875c4.05411,4.12002 5.12473,8.0377 3.21187,11.75303c-1.91286,3.71533 -4.88706,5.78256 -8.92259,6.2017c-0.34788,0.11596 -0.92768,0.17394 -1.73941,0.17395c-2.55113,0 -5.33917,-0.44838 -8.36412,-1.34516c-3.02495,-0.89678 -5.46511,-2.67871 -7.32048,-5.34579c-1.09327,-2.73661 -2.51397,-4.64538 -4.26211,-5.72632c-1.99787,-1.23536 -4.39175,-1.40004 -7.18162,-0.49402c-7.29195,2.25321 -10.93793,4.56842 -10.93793,6.9456c0,1.17977 0.18523,2.52625 0.55568,4.03943c0.28497,1.16399 0.67954,2.42662 1.18371,3.78789c2.3192,7.3055 6.60274,12.9703 12.85061,16.99442c6.24787,4.02412 13.37243,6.03618 21.37369,6.03618c2.899,0 5.56609,-0.23192 8.00125,-0.69576c5.21821,-0.92768 7.82731,-2.3192 7.82731,-4.17457c0,-0.5798 -0.2899,-0.98566 -0.8697,-1.21758c-0.92768,-0.69576 -1.39153,-1.39152 -1.39153,-2.08728c0,-0.81172 1.04364,-0.5798 3.13093,0.69577c1.62344,1.1596 2.95698,1.73941 4.00062,1.73941c1.39152,0 3.82669,-1.7394 7.30549,-5.21821c7.18953,-6.84165 10.7843,-14.78492 10.7843,-23.82982c0,-6.37781 -2.04973,-12.4913 -6.1492,-18.34047c-4.09946,-5.84917 -10.75183,-11.78908 -19.9571,-17.81974c-2.05509,-1.20708 -4.5913,-3.20704 -7.60863,-5.99988c-3.01732,-2.79284 -5.6463,-5.86786 -7.88692,-9.22507c-3.53741,-5.30024 -4.56667,-10.41072 -3.08778,-15.33144c1.47889,-4.92072 4.44539,-7.58282 8.89948,-7.98628c1.62344,-0.23192 2.66708,-0.34788 3.13092,-0.34788c3.0003,0.13211 5.72537,1.11777 8.17519,2.95699c1.43501,0.82622 4.30502,2.47865 5.74003,3.30487c1.91334,-0.95667 5.10225,-2.55112 7.65337,-3.82668c4.98629,-2.43516 7.47943,-4.11659 7.47943,-5.04427c0,-3.13092 -3.01528,-7.33983 -9.04583,-12.62671c-6.03056,-5.28689 -13.04584,-8.03559 -21.04585,-8.24612c-1.50748,0 -1.50748,0.00001 -2.26123,0.00001c-5.45013,0 -9.74066,0.57981 -12.87159,1.73941c-3.82669,1.39153 -7.8853,4.26154 -12.17583,8.61005z" data-paper-data="{&quot;glyphName&quot;:&quot;S&quot;,&quot;glyphIndex&quot;:0,&quot;firstGlyphOfWord&quot;:true,&quot;word&quot;:1}"/><path d="M253.24147,179.98959c-4.29053,4.34851 -6.89963,8.26217 -7.82732,11.74098c-0.92768,3.24689 -1.39153,7.3055 -1.39153,12.17583c0,5.79801 0.63778,10.43642 1.91334,13.91523c0.79953,2.17785 2.42139,5.38079 4.86558,9.60882c2.44418,4.22803 5.56666,8.25946 9.36744,12.09428c4.19827,4.23602 8.3861,7.67823 12.56349,10.32664c4.1774,2.64841 8.27219,6.01133 12.28438,10.08875c4.05411,4.12002 5.12473,8.0377 3.21187,11.75303c-1.91286,3.71533 -4.88706,5.78256 -8.92259,6.2017c-0.34788,0.11596 -0.92768,0.17394 -1.73941,0.17395c-2.55113,0 -5.33917,-0.44838 -8.36412,-1.34516c-3.02495,-0.89678 -5.46511,-2.67871 -7.32048,-5.34579c-1.09327,-2.73661 -2.51397,-4.64538 -4.26211,-5.72632c-1.99787,-1.23536 -4.39175,-1.40004 -7.18162,-0.49402c-7.29195,2.25321 -10.93793,4.56842 -10.93793,6.9456c0,1.17977 0.18523,2.52625 0.55568,4.03943c0.28497,1.16399 0.67954,2.42662 1.18371,3.78789c2.3192,7.3055 6.60274,12.9703 12.85061,16.99442c6.24787,4.02412 13.37243,6.03618 21.37369,6.03618c2.899,0 5.56609,-0.23192 8.00125,-0.69576c5.21821,-0.92768 7.82731,-2.3192 7.82731,-4.17457c0,-0.5798 -0.2899,-0.98566 -0.8697,-1.21758c-0.92768,-0.69576 -1.39153,-1.39152 -1.39153,-2.08728c0,-0.81172 1.04364,-0.5798 3.13093,0.69577c1.62344,1.1596 2.95698,1.73941 4.00062,1.73941c1.39152,0 3.82669,-1.7394 7.30549,-5.21821c7.18953,-6.84165 10.7843,-14.78492 10.7843,-23.82982c0,-6.37781 -2.04973,-12.4913 -6.1492,-18.34047c-4.09946,-5.84917 -10.75183,-11.78908 -19.9571,-17.81974c-2.05509,-1.20708 -4.5913,-3.20704 -7.60863,-5.99988c-3.01732,-2.79284 -5.6463,-5.86786 -7.88692,-9.22507c-3.53741,-5.30024 -4.56667,-10.41072 -3.08778,-15.33144c1.47889,-4.92072 4.44539,-7.58282 8.89948,-7.98628c1.62344,-0.23192 2.66708,-0.34788 3.13092,-0.34788c3.0003,0.13211 5.72537,1.11777 8.17519,2.95699c1.43501,0.82622 4.30502,2.47865 5.74003,3.30487c1.91334,-0.95667 5.10225,-2.55112 7.65337,-3.82668c4.98629,-2.43516 7.47943,-4.11659 7.47943,-5.04427c0,-3.13092 -3.01528,-7.33983 -9.04583,-12.62671c-6.03056,-5.28689 -13.04584,-8.03559 -21.04585,-8.24612c-1.50748,0 -1.50748,0.00001 -2.26123,0.00001c-5.45013,0 -9.74066,0.57981 -12.87159,1.73941c-3.82669,1.39153 -7.8853,4.26154 -12.17583,8.61005z" data-paper-data="{&quot;glyphName&quot;:&quot;S&quot;,&quot;glyphIndex&quot;:1,&quot;word&quot;:1}"/><path d="M335.85463,182.95428c-1.39152,3.42083 -2.37719,7.39247 -2.95699,11.91492c-0.17394,1.69592 -0.52182,5.08776 -0.69576,6.78368c1.00016,-2.0438 2.66708,-5.45013 4.00062,-8.17519c2.66708,-5.56609 4.75437,-9.56671 6.26185,-12.00187c1.1596,-1.97132 1.7394,-3.30486 1.7394,-4.00062c0,-0.69576 -0.46384,-1.04364 -1.39153,-1.04364c-0.5798,0 -1.39153,0.17395 -2.43517,0.52183c-1.62344,0.5798 -3.13093,2.58012 -4.52245,6.00095zM360.86893,236.58989c0.23192,1.62344 0.34788,2.60911 0.34788,2.95699c0,0.81172 -0.26091,1.36253 -0.78273,1.65244c-0.52182,0.2899 -1.65243,0.55081 -3.39184,0.78273c-1.7394,0.34788 -3.18891,0.52182 -4.34851,0.52182c-0.69576,0 -1.04364,-0.23192 -1.04364,-0.69576c0,-2.3192 0.5798,-7.24751 1.7394,-14.78492c1.39152,-8.11721 2.43516,-12.17582 3.13093,-12.17582c0.69576,0 1.56546,3.42083 2.6091,10.26248c0.81172,5.79801 1.39152,9.6247 1.7394,11.48006zM352.90075,174.77917c-2.43516,1.68142 -5.10225,5.59508 -8.00126,11.74098c-3.47881,7.07357 -5.39215,12.00189 -5.74003,14.78493c-0.46384,2.78305 -1.27556,5.5371 -2.43517,8.26217c-1.1596,2.72507 -2.08729,4.0876 -2.78305,4.0876c-0.11596,0 -0.23192,-0.05798 -0.34788,-0.17394c-0.11596,-0.23192 -0.2899,-0.34788 -0.52182,-0.34788c-0.92768,0 -1.77391,1.61928 -2.53869,4.85782c-0.76477,3.23854 -1.611,8.80046 -2.53869,16.68576c-1.27556,9.97258 -2.55113,19.65526 -3.82669,29.04804c-2.66709,17.27807 -4.00063,28.00439 -4.00063,32.17897c0,0.92768 0.05798,1.50749 0.17394,1.73941c0.5798,1.85536 4.00062,2.78305 10.26248,2.78305c0.92768,0 2.55112,-0.11596 4.87033,-0.34788c3.94265,-0.46384 6.46478,-1.59445 7.5664,-3.39183c1.10162,-1.79738 1.94233,-6.29084 2.52213,-13.48037c0.81172,-10.2045 1.7394,-16.17645 2.78304,-17.91585c1.04364,-1.7394 4.46447,-3.13092 10.26248,-4.17456c1.34804,-0.21742 4.04411,-0.65227 5.39215,-0.86969c0,1.86986 0,4.98629 0,7.47944c0,4.75437 0.63778,10.72632 1.91334,17.91586c1.27556,7.18954 1.91334,10.90026 1.91334,11.13219c0,0.23192 1.79738,0.34788 5.39215,0.34788c3.59476,0 6.9866,-0.49283 10.17551,-1.47849c3.18891,-0.98566 5.01528,-2.05829 5.47912,-3.21789c0.11596,-0.23192 0.17394,-0.69576 0.17394,-1.39152c0,-2.43516 -0.34788,-5.33417 -1.04364,-8.69701c-3.59477,-19.59727 -5.39215,-42.67336 -5.39215,-69.22824c-0.90562,-9.26012 -0.89459,-18.12273 0.03309,-26.58783c0.46384,-3.82668 0.69576,-7.59539 0.69576,-11.30612c0,-5.45013 -0.5798,-8.17519 -1.73941,-8.17519c-0.11596,0 -0.69576,0.11596 -1.73941,0.34789c-0.92768,0.23192 -2.37719,0.55081 -4.34851,0.95668c-1.97133,0.40586 -3.76871,0.78273 -5.39216,1.13062c-9.0449,1.85536 -14.78493,3.62376 -17.22009,5.30518z" data-paper-data="{&quot;glyphName&quot;:&quot;A&quot;,&quot;glyphIndex&quot;:2,&quot;lastGlyphOfWord&quot;:true,&quot;word&quot;:1}"/></g></g></g></svg>