<svg xmlns="http://www.w3.org/2000/svg" width="48" height="48" viewBox="0 0 48 48" fill="none"><path d="M18 44H30C40 44 44 40 44 30V18C44 8 40 4 30 4H18C8 4 4 8 4 18V30C4 40 8 44 18 44Z" stroke="#3A3A3A" stroke-width="2" stroke-linecap="round" stroke-linejoin="round"></path><path d="M31.1406 37.0002V29.2002" stroke="#3A3A3A" stroke-width="2" stroke-miterlimit="10" stroke-linecap="round" stroke-linejoin="round"></path><path d="M31.1406 14.9V11" stroke="#3A3A3A" stroke-width="2" stroke-miterlimit="10" stroke-linecap="round" stroke-linejoin="round"></path><path d="M31.1414 25.3004C34.0133 25.3004 36.3414 22.9723 36.3414 20.1004C36.3414 17.2285 34.0133 14.9004 31.1414 14.9004C28.2695 14.9004 25.9414 17.2285 25.9414 20.1004C25.9414 22.9723 28.2695 25.3004 31.1414 25.3004Z" stroke="#3A3A3A" stroke-width="2" stroke-miterlimit="10" stroke-linecap="round" stroke-linejoin="round"></path><path d="M16.8594 36.9996V33.0996" stroke="#3A3A3A" stroke-width="2" stroke-miterlimit="10" stroke-linecap="round" stroke-linejoin="round"></path><path d="M16.8594 18.8V11" stroke="#3A3A3A" stroke-width="2" stroke-miterlimit="10" stroke-linecap="round" stroke-linejoin="round"></path><path d="M16.86 33.0999C19.7319 33.0999 22.06 30.7718 22.06 27.9C22.06 25.0281 19.7319 22.7 16.86 22.7C13.9882 22.7 11.66 25.0281 11.66 27.9C11.66 30.7718 13.9882 33.0999 16.86 33.0999Z" stroke="#3A3A3A" stroke-width="2" stroke-miterlimit="10" stroke-linecap="round" stroke-linejoin="round"></path></svg>