<svg xmlns="http://www.w3.org/2000/svg" width="48" height="48" viewBox="0 0 48 48" fill="none"><g clip-path="url(#clip0_4_51)"><path d="M21.9399 4H17.9399C7.93994 4 3.93994 8 3.93994 18V30C3.93994 40 7.93994 44 17.9399 44H29.9399C39.9399 44 43.9399 40 43.9399 30V26" stroke="#3A3A3A" stroke-width="2" stroke-linecap="round" stroke-linejoin="round"></path><path d="M43.76 7.12001C41.3 13.26 35.12 21.62 29.96 25.76L26.8 28.28C26.4 28.58 26 28.82 25.54 29C25.54 28.7 25.52 28.4 25.48 28.08C25.3 26.74 24.7 25.48 23.62 24.42C22.52 23.32 21.2 22.7 19.84 22.52C19.52 22.5 19.2 22.48 18.88 22.5C19.06 22 19.32 21.54 19.66 21.16L22.18 18C26.32 12.84 34.7 6.62001 40.82 4.16001C41.76 3.80001 42.68 4.08001 43.26 4.66001C43.86 5.26001 44.14 6.18001 43.76 7.12001Z" stroke="#3A3A3A" stroke-width="2" stroke-linecap="round" stroke-linejoin="round"></path><path d="M25.5599 28.98C25.5599 30.74 24.8799 32.42 23.6199 33.7C22.6399 34.68 21.3199 35.36 19.7399 35.56L15.7999 35.98C13.6599 36.22 11.8199 34.4 12.0599 32.22L12.4799 28.28C12.8599 24.78 15.7799 22.54 18.8999 22.48C19.2199 22.46 19.5399 22.48 19.8599 22.5C21.2199 22.68 22.5399 23.3 23.6399 24.4C24.7199 25.48 25.3199 26.72 25.4999 28.06C25.5399 28.38 25.5599 28.7 25.5599 28.98Z" stroke="#3A3A3A" stroke-width="2" stroke-linecap="round" stroke-linejoin="round"></path><path d="M31.6401 23.96C31.6401 19.78 28.2601 16.38 24.0601 16.38" stroke="#3A3A3A" stroke-width="1.5" stroke-linecap="round" stroke-linejoin="round"></path></g><defs><clipPath id="clip0_4_51"><rect width="48" height="48" fill="white"></rect></clipPath></defs></svg>